PathFileType	4	(x/y/z)	S05_PSF_T05
DataRate	CameraRate	NumFrames	NumMarkers	Units	OrigDataRate	OrigDataStartFrame	OrigNumFrames
240	240	4	50	mm	240	112	445
Frame#	Time	Sternum			R.Acromium			L.Acromium			Top.Head			R.ASIS			L.ASIS			R.PSIS			L.PSIS			R.Great.Tro			L.Great.Tro			R.Iliac.Crest			L.Iliac.Crest			V.Sacral			R.Thigh.Upper.Post			R.Thigh.Lower.Ant			R.Thigh.Lower.Post			R.Thigh.Upper.Ant			R.Knee.Lat			R.Knee.Med			R.Shank.Upper.Post			R.Shank.Lower.Ant			R.Shank.Lower.Post			R.Shank.Upper.Ant			R.Ankle.Lat			R.Ankle.Med			R.Heel.Upper			R.Heel.Med			R.Heel.Lat			R.Toe.Lat			R.Toe.Med			R.Toe.Tip			L.Thigh.Upper.Post			L.Thigh.Lower.Ant			L.Thigh.Lower.Post			L.Thigh.Upper.Ant			L.Knee.Lat			L.Shank.Upper.Post			L.Shank.Lower.Ant			L.Shank.Lower.Post			L.Shank.Upper.Ant			L.Ankle.Lat			L.Ankle.Med			L.Heel.Upper			L.Heel.Med			L.Heel.Lat			L.Toe.Lat			L.Toe.Med			L.Toe.Tip			Cervical.Spine			Back			
		X1	Y1	Z1	X2	Y2	Z2	X3	Y3	Z3	X4	Y4	Z4	X5	Y5	Z5	X6	Y6	Z6	X7	Y7	Z7	X8	Y8	Z8	X9	Y9	Z9	X10	Y10	Z10	X11	Y11	Z11	X12	Y12	Z12	X13	Y13	Z13	X14	Y14	Z14	X15	Y15	Z15	X16	Y16	Z16	X17	Y17	Z17	X18	Y18	Z18	X19	Y19	Z19	X20	Y20	Z20	X21	Y21	Z21	X22	Y22	Z22	X23	Y23	Z23	X24	Y24	Z24	X25	Y25	Z25	X26	Y26	Z26	X27	Y27	Z27	X28	Y28	Z28	X29	Y29	Z29	X30	Y30	Z30	X31	Y31	Z31	X32	Y32	Z32	X33	Y33	Z33	X34	Y34	Z34	X35	Y35	Z35	X36	Y36	Z36	X37	Y37	Z37	X38	Y38	Z38	X39	Y39	Z39	X40	Y40	Z40	X41	Y41	Z41	X42	Y42	Z42	X43	Y43	Z43	X44	Y44	Z44	X45	Y45	Z45	X46	Y46	Z46	X47	Y47	Z47	X48	Y48	Z48	X49	Y49	Z49	X50	Y50	Z50	

112	0.4625	-944.94	1268.1	276.41	-1042.2	1526.6	429.66	-1058.7	1542.8	106.5	-1038.4	1838.2	254.55	-1005.6	1016.7	404.34	-1009.6	1023.7	154.23	NaN	NaN	NaN	NaN	NaN	NaN	-1077.1	931.34	472.67	-1108.8	945.78	87.399	-1097.3	1098.9	447.64	-1102.6	1098.4	112.24	-1222.2	997.71	293.34	-945.45	738.76	468.87	-873.99	690.26	413.69	-924.94	652.33	449.74	-899.16	774.52	431.7	-903.13	556.74	427.74	-894.17	543.94	296.35	-948.31	310.97	415.99	-877.95	256.29	424.17	-935.59	236.4	402.03	-889.28	332.46	437.38	-872.86	147.44	408.68	-858.47	175.88	323.17	-922.7	81.348	340.31	-899.27	55.518	313.86	-911.53	54.224	377.51	-758.91	81.148	451.23	-713.6	103.43	341.9	-663.54	137.01	393.7	-1129.6	709.86	97.968	-1055.5	629.95	118.16	-1127	615.96	116.21	-1050.9	718.92	97.551	-1128.2	521.33	126.76	-1217.6	328.78	136.69	-1156	263.7	137.4	-1226.8	258.57	156.52	-1151.4	332.96	122.89	-1209.5	115.37	167.73	-1172.1	131.12	252.04	-1269.1	70.534	224.8	-1256.3	44.834	256.15	-1270.1	44.327	195.58	-1092.2	38.241	127.3	-1060.1	49.907	245.16	-1000.2	57.712	185.28	-1095.2	1573.1	272.24	-1210.8	1299.5	276.83
113	0.46667	-939.57	1267.4	276.32	-1036.8	1525.8	429.81	-1053.6	1542.2	106.7	-1032.9	1837.5	254.86	-999.94	1015.8	404.22	-1004.3	1023.1	154.14	NaN	NaN	NaN	NaN	NaN	NaN	-1071.4	930.33	472.55	-1104.1	945.5	87.471	-1091.2	1098	447.68	-1097.5	1097.8	112.38	-1216.8	997.29	293.72	-941.05	737.02	468.59	-870.1	688.06	413.08	-921.02	650.43	449.49	-894.78	772.47	431.09	-898.88	555.14	427.18	-890.3	542.14	295.47	-937.76	308.49	416.11	-865.84	255.93	424.64	-922.91	234.25	402.28	-879.36	331.74	437.51	-857.34	146.91	409.31	-843.8	175.55	323.8	-905.17	79.095	341.09	-880.9	53.869	314.74	-893.22	52.426	378.38	-741.44	84.113	452.07	-696.8	107.48	342.81	-647.75	142.69	394.52	-1126.5	709.84	98.048	-1052.9	629.46	118.23	-1124.5	615.94	116.33	-1047.9	718.35	97.479	-1126.5	521.25	126.91	-1216.7	329.06	136.92	-1155.4	263.73	137.47	-1226.2	258.88	156.77	-1150.6	332.98	122.97	-1209.3	115.47	167.89	-1171.9	131.08	252.21	-1269	70.624	224.94	-1256.2	44.852	256.26	-1270.1	44.455	195.68	-1092.2	38.237	127.3	-1060	49.784	245.16	-1000.1	57.519	185.28	-1089.7	1572.3	272.43	-1205.5	1298.7	277.06
114	0.47083	-934.19	1266.6	276.26	-1031.4	1524.9	429.98	-1048.4	1541.5	106.93	-1027.5	1836.7	255.19	-994.25	1014.8	404.11	-999	1022.4	154.06	NaN	NaN	NaN	NaN	NaN	NaN	-1065.8	929.25	472.42	-1099.4	945.19	87.535	-1085.1	1097	447.73	-1092.4	1097.2	112.53	-1211.4	996.83	294.1	-936.67	735.21	468.33	-866.25	685.79	412.49	-917.11	648.46	449.27	-890.44	770.36	430.49	-894.64	553.5	426.66	-886.45	540.3	294.61	-927.31	306.17	416.27	-853.89	255.72	425.12	-910.37	232.31	402.56	-869.56	331.12	437.64	-842.06	146.62	409.94	-829.36	175.43	324.44	-887.9	77.172	341.88	-862.83	52.561	315.6	-875.18	50.969	379.25	-724.33	87.284	452.87	-680.34	111.74	343.6	-632.35	148.47	395.28	-1123.5	709.8	98.123	-1050.4	628.95	118.29	-1122	615.9	116.45	-1044.8	717.77	97.403	-1124.8	521.17	127.05	-1215.9	329.34	137.16	-1154.8	263.77	137.53	-1225.7	259.19	157.02	-1149.7	332.99	123.05	-1209.2	115.57	168.05	-1171.6	131.05	252.38	-1268.9	70.717	225.09	-1256.1	44.873	256.37	-1270	44.585	195.79	-1092.2	38.232	127.29	-1059.9	49.665	245.16	-1000.1	57.328	185.27	-1084.2	1571.5	272.65	-1200.1	1297.9	277.3
115	0.475	-928.79	1265.8	276.23	-1026	1523.9	430.17	-1043.2	1540.8	107.19	-1022.1	1835.9	255.55	-988.56	1013.8	404.02	-993.65	1021.7	153.99	NaN	NaN	NaN	NaN	NaN	NaN	-1060.1	928.11	472.29	-1094.6	944.85	87.591	-1078.9	1096	447.78	-1087.3	1096.6	112.68	-1205.9	996.31	294.48	-932.31	733.37	468.09	-862.41	683.49	411.92	-913.22	646.46	449.09	-886.11	768.21	429.9	-890.39	551.83	426.18	-882.59	538.44	293.77	-916.96	303.99	416.46	-842.13	255.66	425.62	-897.99	230.55	402.87	-859.89	330.59	437.78	-827.05	146.56	410.57	-815.19	175.52	325.06	-870.91	75.565	342.66	-845.1	51.576	316.46	-857.46	49.834	380.11	-707.59	90.626	453.63	-664.26	116.17	344.28	-617.37	154.31	395.96	-1120.3	709.74	98.193	-1047.8	628.42	118.35	-1119.5	615.85	116.57	-1041.6	717.16	97.325	-1123	521.08	127.18	-1215	329.63	137.39	-1154.2	263.8	137.59	-1225.1	259.5	157.27	-1148.8	333	123.12	-1209	115.67	168.21	-1171.3	131.02	252.55	-1268.8	70.814	225.25	-1256	44.896	256.48	-1269.9	44.716	195.9	-1092.1	38.228	127.29	-1059.8	49.549	245.16	-999.98	57.138	185.26	-1078.8	1570.7	272.89	-1194.7	1297	277.55
